<svg xmlns="http://www.w3.org/2000/svg"
     viewBox="0 0 14 14"
     fill="#ff304f">

<path d="M6.7664067 12.786415C6.3616257 12.391244 5.9320964 12.02537 4.8802917 11.17993 3.7921396 10.305293 3.4389549 9.9988143 3.0021262 9.5504464 2.1748654 8.7012072 1.7913329 7.96326 1.7156083 7.0749236 1.6857104 6.7247486 1.7246077 6.3888727 1.8369396 6.0381978 1.8921357 5.8650102 2.0005679 5.6222276 2.0753726 5.504036 2.1014707 5.463039 2.1223692 5.421042 2.1218692 5.4120426 2.1213093 5.4020433 2.1053704 5.3013505 2.0863718 5.1865588 1.9703601 4.484309 2.0143769 3.7609608 2.2182123 3.0199139 2.3867303 2.4073577 2.7124469 1.7243066 3.0978793 1.1753459 3.1672744 1.076353 3.2254802.99755858 3.2271701 1.0000584c.002 0-.004.086994-.011699.1880866-.027498.3412756.006.8726375.081094 1.2938074.1141519.6389542.3423855 1.1991141.6606627 1.6214839l.083294.1104921.3614641.01c.3083579.01.3880522.014999.5423812.051996.6670422.1571887 1.3223653.5114633 1.913403 1.0345259l.14103.1247907.052896-.043997c.029893-.024999.101658-.087995.160274-.1396917.4151103-.3671737.9801498-.7006498 1.4693048-.8670379.3678737-.125191.5131533-.1506892.9186442-.1607885l.3614741-.01.083294-.110592c.352145-.4672666.584418-1.076123.69495-1.8217696.0429-.2890793.0669-.8135418.0485-1.0601241-.009-.1192915-.0149-.2189844-.0133-.2214842.002 0 .05969.075995.12913.1752875.385433.5489607.711159 1.2320118.879677 1.8446679.204506.7434468.248093 1.4601955.131731 2.1665449-.0189.1147918-.0348.2162845-.0354.2254839-.00057.01.0204.050996.0465.091993.122061.1927862.259721.5505606.314818.8179414.123631.6002571.0315 1.2751087-.257142 1.8830652-.213585.4499678-.519733.8684379-.98443 1.3454037-.437088.4486686-.791143.7558468-1.8781663 1.6293838-1.0410055.83654-1.4967529 1.225013-1.9045237 1.623184-.110912.108292-.2085751.196586-.2170244.196286-.008-.0003-.1132219-.09599-.2328034-.212885z"/>

</svg>